<svg version="1.1" id="Layer_1" xmlns="http://www.w3.org/2000/svg" xmlns:xlink="http://www.w3.org/1999/xlink" x="0px" y="0px"
	 viewBox="0 0 100 100" enable-background="new 0 0 100 100" xml:space="preserve">
<path d="M37.6,77.3L33,81.9c-4.1,4-10.7,4.1-14.7,0c-2-1.9-3-4.5-3-7.3c0-2.7,1-5.3,3-7.3l17.2-17.2c3.6-3.6,10.3-8.8,15.2-3.9
	c2.3,2.2,5.9,2.2,8.2-0.1c2.2-2.3,2.2-5.9-0.1-8.1c-8.4-8.3-20.7-6.7-31.4,4L10.1,59.3C6,63.4,3.7,68.9,3.7,74.7
	c0,5.8,2.3,11.3,6.5,15.4c4.3,4.2,9.9,6.3,15.5,6.3s11.2-2.2,15.5-6.4l4.7-4.7c2.3-2.2,2.3-5.9,0-8.1C43.5,75,39.9,75,37.6,77.3
	L37.6,77.3z M89.9,10.5c-9-8.9-21.5-9.3-29.8-1.1l-5.8,5.8c-2.2,2.2-2.3,5.9,0,8.1c2.2,2.2,5.9,2.3,8.1,0l5.8-5.8
	c4.3-4.3,9.9-2.5,13.6,1.1c2,1.9,3,4.5,3,7.3c0,2.7-1.1,5.3-3,7.3L63.4,51.6C55,59.9,51,56,49.4,54.3c-2.3-2.2-5.9-2.2-8.1,0
	c-2.2,2.3-2.2,5.9,0,8.1c3.9,3.8,8.3,5.7,12.9,5.7c5.7,0,11.7-2.9,17.3-8.5L90,41.4c4.1-4.1,6.4-9.6,6.4-15.4
	C96.3,20.1,94,14.6,89.9,10.5L89.9,10.5z"></path>
</svg>
