<svg version="1.1" id="Layer_1" x="0px" y="0px" xmlns="http://www.w3.org/2000/svg" viewBox="-10 -10 100 100" enable-background="new -10 -10 100 100" xml:space="preserve">
<g>
	<path d="M83.674-3.881c-9.22-9.221-24.224-9.212-33.446,0L33.501,12.846c-1.421,1.421-1.421,3.723,0,5.143
		c1.421,1.421,3.723,1.421,5.145,0L55.372,1.265c3.075-3.076,7.188-4.774,11.576-4.774s8.501,1.698,11.575,4.78
		c3.083,3.074,4.771,7.187,4.771,11.575c0,4.389-1.688,8.503-4.771,11.576l-21.862,21.87c-6.387,6.389-16.771,6.389-23.16,0
		c-1.421-1.42-3.723-1.42-5.145,0c-1.421,1.422-1.421,3.732,0,5.144c4.613,4.61,10.662,6.92,16.719,6.92
		c6.06,0,12.117-2.31,16.729-6.92l21.869-21.862c4.451-4.451,6.903-10.394,6.903-16.728S88.125,0.57,83.674-3.881L83.674-3.881z"></path>
	<path d="M39.933,63.022l-14.152,14.15c-3.073,3.073-7.187,4.77-11.574,4.77c-4.39,0-8.503-1.696-11.585-4.77
		c-6.377-6.387-6.377-16.778,0-23.159L23.207,33.43c3.082-3.07,7.195-4.77,11.583-4.77c4.39,0,8.502,1.7,11.578,4.77
		c1.42,1.421,3.722,1.421,5.143,0c1.42-1.42,1.42-3.73,0-5.142c-9.223-9.222-24.225-9.222-33.447,0L-2.521,48.87
		c-4.45,4.45-6.902,10.387-6.902,16.721c0,6.331,2.452,12.274,6.902,16.725c4.45,4.451,10.392,6.902,16.728,6.902
		c6.325,0,12.267-2.451,16.718-6.902l14.151-14.148c1.422-1.423,1.422-3.725,0-5.145C43.657,61.602,41.354,61.602,39.933,63.022
		L39.933,63.022z"></path>
	<path d="M52.432,69.266c-2.007,0-3.634,1.638-3.634,3.641v10.92c0,2.008,1.627,3.634,3.634,3.634
		c2.008,0,3.644-1.626,3.644-3.634v-10.92C56.075,70.903,54.447,69.266,52.432,69.266L52.432,69.266z"></path>
	<path d="M65.482,66.699c-1.425-1.422-3.722-1.422-5.145,0c-1.42,1.421-1.42,3.724,0,5.145l7.72,7.717
		c0.711,0.713,1.636,1.065,2.568,1.065s1.864-0.353,2.577-1.065c1.421-1.42,1.421-3.719,0-5.141L65.482,66.699z"></path>
	<path d="M74.206,54.715h-10.92c-2.008,0-3.641,1.636-3.641,3.641c0,2.008,1.636,3.638,3.641,3.638h10.92
		c2.006,0,3.634-1.628,3.634-3.638C77.84,56.348,76.212,54.715,74.206,54.715L74.206,54.715z"></path>
	<path d="M23.321,12.875c2.008,0,3.643-1.635,3.643-3.642V-1.686c0-2.008-1.636-3.634-3.643-3.634
		c-2.006,0-3.632,1.626-3.632,3.634V9.232C19.688,11.239,21.315,12.875,23.321,12.875L23.321,12.875z"></path>
	<path d="M9.836,15.441c0.711,0.711,1.641,1.067,2.578,1.067c0.923,0,1.856-0.356,2.565-1.067
		c1.421-1.42,1.421-3.722,0-5.141L7.26,2.579c-1.421-1.421-3.722-1.421-5.143,0C0.695,4,0.695,6.302,2.117,7.722L9.836,15.441z"></path>
	<path d="M1.432,27.425H12.34c2.019,0,3.643-1.627,3.643-3.642c0-2.009-1.625-3.634-3.643-3.634H1.432
		c-2.006,0-3.64,1.625-3.64,3.634C-2.21,25.798-0.574,27.425,1.432,27.425L1.432,27.425z"></path>
</g>
</svg>
