<svg version="1.1" id="Layer_1" xmlns="http://www.w3.org/2000/svg" xmlns:xlink="http://www.w3.org/1999/xlink" x="0px" y="0px"
	 viewBox="0 0 24 24" enable-background="new 0 0 24 24" xml:space="preserve">
<g>
	<g>
		<path d="M13.9,14.6l3.7-5.2c0.1-0.2,0.1-0.4,0-0.5c-0.1-0.1-0.4-0.2-0.5,0l-5.2,3.7c-0.3,0.2-0.6,0.6-0.6,1c0,0.4,0.1,0.8,0.4,1.1
			c0.3,0.3,0.6,0.4,1,0.4C13.2,15.2,13.6,15,13.9,14.6L13.9,14.6z M13.9,14.6"/>
	</g>
	<g>
		<path d="M21.8,7.8C21.8,7.8,21.8,7.8,21.8,7.8C21.8,7.8,21.8,7.8,21.8,7.8c-0.4-0.7-0.9-1.4-1.5-2L21.2,5l0.6,0.6l1.7-1.7
			l-1.7-1.7l-1.7,1.7l0.6,0.6l-0.9,0.9c-0.6-0.5-1.2-1-1.9-1.4c0,0,0,0,0,0c0,0,0,0,0,0c-1.2-0.7-2.6-1.2-4.1-1.4V2h0.6
			c0.6,0,1-0.4,1-1c0-0.6-0.4-1-1-1h-3.6c-0.6,0-1,0.4-1,1c0,0.6,0.4,1,1,1h0.6v0.5c-0.4,0-0.9,0.1-1.3,0.2C9.8,2.7,9.7,2.9,9.7,3.2
			c0,0.2,0.3,0.4,0.5,0.3c0.4-0.1,0.8-0.2,1.1-0.2l0.4,0c0.1,0,0.3,0,0.4,0V4c0,0.2,0.2,0.4,0.4,0.4s0.4-0.2,0.4-0.4V3.2
			c1.5,0.1,2.9,0.5,4.2,1.1L16.7,5c-0.1,0.2,0,0.4,0.1,0.5c0.1,0,0.1,0.1,0.2,0.1c0.1,0,0.3-0.1,0.3-0.2l0.4-0.7
			c1.3,0.8,2.3,1.9,3.1,3.1l-0.7,0.4C20,8.4,20,8.6,20.1,8.8C20.1,8.9,20.3,9,20.4,9c0.1,0,0.1,0,0.2-0.1l0.7-0.4
			c0.7,1.3,1.1,2.7,1.1,4.2h-0.8c-0.2,0-0.4,0.2-0.4,0.4c0,0.2,0.2,0.4,0.4,0.4h0.8c-0.1,1.5-0.5,3-1.1,4.2l-0.7-0.4
			c-0.2-0.1-0.4,0-0.5,0.1c-0.1,0.2,0,0.4,0.1,0.5l0.7,0.4c-0.8,1.3-1.9,2.3-3.1,3.1L17.4,21c-0.1-0.2-0.4-0.3-0.5-0.1
			c-0.2,0.1-0.3,0.4-0.1,0.5l0.4,0.7c-1.3,0.7-2.7,1.1-4.2,1.1v-0.8c0-0.2-0.2-0.4-0.4-0.4c-0.2,0-0.4,0.2-0.4,0.4v0.8
			c-0.6,0-1.3-0.1-1.9-0.2c-0.2,0-0.4,0.1-0.5,0.3c0,0.2,0.1,0.4,0.3,0.5c0.8,0.2,1.6,0.3,2.4,0.3c0,0,0,0,0.1,0c0,0,0,0,0,0
			c0,0,0,0,0,0c1.9,0,3.7-0.5,5.3-1.4c0,0,0,0,0,0c0,0,0,0,0,0c1.6-0.9,3-2.3,3.9-3.9c0,0,0,0,0,0c0,0,0,0,0,0
			c0.9-1.6,1.4-3.4,1.4-5.4C23.3,11.2,22.7,9.4,21.8,7.8L21.8,7.8z M21.8,7.8"/>
	</g>
	<g>
		<path d="M8.9,5.2h-2C6.5,5.2,6.1,5.6,6.1,6c0,0.4,0.4,0.8,0.8,0.8h2c0.4,0,0.8-0.4,0.8-0.8C9.7,5.6,9.4,5.2,8.9,5.2L8.9,5.2z
			 M8.9,5.2"/>
	</g>
	<g>
		<path d="M8.9,8h-4C4.5,8,4.1,8.4,4.1,8.8c0,0.4,0.4,0.8,0.8,0.8h4c0.4,0,0.8-0.4,0.8-0.8C9.7,8.4,9.4,8,8.9,8L8.9,8z M8.9,8"/>
	</g>
	<g>
		<path d="M8.9,10.8h-6c-0.4,0-0.8,0.4-0.8,0.8c0,0.4,0.4,0.8,0.8,0.8h6c0.4,0,0.8-0.4,0.8-0.8C9.7,11.2,9.4,10.8,8.9,10.8L8.9,10.8
			z M8.9,10.8"/>
	</g>
	<g>
		<path d="M8.9,13.6H1.3c-0.4,0-0.8,0.4-0.8,0.8c0,0.4,0.4,0.8,0.8,0.8h7.6c0.4,0,0.8-0.4,0.8-0.8C9.7,14,9.4,13.6,8.9,13.6
			L8.9,13.6z M8.9,13.6"/>
	</g>
	<g>
		<path d="M8.9,16.4H3.7c-0.4,0-0.8,0.4-0.8,0.8c0,0.4,0.4,0.8,0.8,0.8h5.2c0.4,0,0.8-0.4,0.8-0.8C9.7,16.8,9.4,16.4,8.9,16.4
			L8.9,16.4z M8.9,16.4"/>
	</g>
	<g>
		<path d="M8.9,19.2H6.1c-0.4,0-0.8,0.4-0.8,0.8c0,0.4,0.4,0.8,0.8,0.8h2.8c0.4,0,0.8-0.4,0.8-0.8C9.7,19.6,9.4,19.2,8.9,19.2
			L8.9,19.2z M8.9,19.2"/>
	</g>
</g>
</svg>
