<svg version="1.1" id="Layer_1" xmlns="http://www.w3.org/2000/svg" xmlns:xlink="http://www.w3.org/1999/xlink" x="0px" y="0px"
	 viewBox="0 0 23.2 24" enable-background="new 0 0 23.2 24" xml:space="preserve">
<path d="M7.8,20.4H1.9V6.5h18.5V9c0.7,0.4,1.3,0.9,1.9,1.4V4.2c0-0.8-0.6-1.4-1.4-1.4h-2.8V1.4c0-0.8-0.6-1.4-1.4-1.4
	c-0.8,0-1.4,0.6-1.4,1.4v1.4h-1.1h-1.7H9.8H8.2H7V1.4C7,0.6,6.4,0,5.6,0C4.7,0,4.2,0.6,4.2,1.4v1.4H1.4C0.6,2.8,0,3.4,0,4.2V21
	c0,0.8,0.6,1.4,1.4,1.4h7.5C8.5,21.8,8.1,21.1,7.8,20.4z"/>
<g>
	<path d="M16.1,11.8c2.8,0,5.1,2.3,5.1,5.1S18.9,22,16.1,22S11,19.7,11,16.9S13.3,11.8,16.1,11.8 M16.1,9.8C12.2,9.8,9,13,9,16.9
		s3.2,7.1,7.1,7.1s7.1-3.2,7.1-7.1S20,9.8,16.1,9.8L16.1,9.8z"/>
</g>
</svg>
