<svg version="1.1" id="Layer_1" xmlns="http://www.w3.org/2000/svg" xmlns:xlink="http://www.w3.org/1999/xlink" x="0px" y="0px"
   viewBox="0 0 185.644 40.684" enable-background="new 0 0 185.644 40.684"
   xml:space="preserve">
<g>
  <polygon fill="#cccccc" points="185.643,-0.286 185.643,40.684 0,40.684 0,-0.286 185.643,-0.286  "/>
  <path fill="#999999" d="M32.646,7.071l-5.932,8.058c0,0,30.749,0,32.326,0c1.634,0,1.613,0.621,0.813,1.703
    c-0.811,1.098-2.168,3.009-2.995,4.124c-0.418,0.567-1.177,1.598,1.334,1.598c2.657,0,13.22,0,13.22,0s2.13-2.899,3.916-5.323
    c2.43-3.297,0.211-10.159-8.476-10.159C59.08,7.071,32.646,7.071,32.646,7.071L32.646,7.071z"/>
  <path fill="#999999" d="M24.315,33.324l11.913-16.188c0,0,13.207,0,14.784,0c1.634,0,1.612,0.622,0.814,1.703
    c-0.812,1.099-2.191,2.989-3.018,4.104c-0.418,0.566-1.177,1.599,1.334,1.599c2.656,0,19.806,0,19.806,0
    c-1.647,2.257-6.99,8.782-16.583,8.782C45.59,33.324,24.315,33.324,24.315,33.324L24.315,33.324z"/>
  <path fill="#999999" d="M92.543,24.541l-6.461,8.783H69.04c0,0,6.458-8.782,6.463-8.782L92.543,24.541L92.543,24.541z"/>
  <polygon fill="#999999" points="118.648,22.553 76.967,22.553 88.365,7.071 105.401,7.071 98.868,15.949 106.474,15.949
    113.01,7.071 130.044,7.071 118.648,22.553   "/>
  <path fill="#999999" d="M117.186,24.542l-6.463,8.782H93.688c0,0,6.456-8.782,6.463-8.782H117.186L117.186,24.542z"/>
  <polygon fill="#999999" points="0,28.005 25.104,28.005 23.732,29.871 0,29.871 0,28.005  "/>
  <polygon fill="#999999" points="0,24.542 27.655,24.542 26.281,26.405 0,26.405 0,24.542  "/>
  <polygon fill="#999999" points="0,31.47 22.555,31.47 21.189,33.324 0,33.324 0,31.47   "/>
  <polygon fill="#999999" points="185.644,29.871 160.634,29.871 162.007,28.005 185.644,28.005 185.644,29.871  "/>
  <polygon fill="#999999" points="185.644,33.324 158.092,33.326 159.457,31.47 185.644,31.47 185.644,33.324  "/>
  <polygon fill="#999999" points="164.555,24.542 185.644,24.542 185.644,26.406 163.184,26.408 164.555,24.542  "/>
  <path fill="#999999" d="M153.638,7.071l-11.396,15.482h-18.052c0,0,11.398-15.482,11.405-15.482H153.638L153.638,7.071z"/>
  <path fill="#999999" d="M122.729,24.542c0,0-1.246,1.702-1.851,2.521c-2.141,2.892-0.248,6.261,6.734,6.261
    c8.065,0,27.359,0,27.359,0l6.463-8.782H122.729L122.729,24.542z"/>
</g>
</svg>
