<svg version="1.1" id="Layer_1" xmlns="http://www.w3.org/2000/svg" xmlns:xlink="http://www.w3.org/1999/xlink" x="0px" y="0px"
	 viewBox="0 0 24 22.1" enable-background="new 0 0 24 22.1" xml:space="preserve">
	<g>
		<path d="M5.8,7.7l1.3-1.3c0.2-0.2,0.4-0.3,0.6-0.3c0.3,0,0.5,0.1,0.6,0.3l0.9,0.9c0.3,0.3,0.8,0.1,0.8-0.4v-6
			c0-0.6,0.4-0.9,0.9-0.9h1.8c0.6,0,0.9,0.4,0.9,0.9V7c0,0.4,0.5,0.6,0.8,0.4l0.9-0.9c0.2-0.2,0.4-0.3,0.6-0.3c0.3,0,0.5,0.1,0.6,0.3
			l1.3,1.3c0.2,0.2,0.3,0.4,0.3,0.6c0,0.3-0.1,0.5-0.3,0.6l-5.5,5.5c-0.2,0.2-0.5,0.3-0.6,0.3c-0.2,0-0.5-0.1-0.6-0.3L5.8,9
			C5.6,8.9,5.5,8.7,5.5,8.4C5.5,8,5.6,7.8,5.8,7.7L5.8,7.7z"/>
		<path d="M24,21.2c0,0.6-0.4,0.9-0.9,0.9H0.9c-0.6,0-0.9-0.4-0.9-0.9v-5.5c0-0.6,0.4-0.9,0.9-0.9h1.8c0.5,0,0.9,0.4,0.9,0.9V18
			c0,0.3,0.2,0.5,0.5,0.5h15.7c0.3,0,0.5-0.2,0.5-0.5v-2.3c0-0.6,0.4-0.9,0.9-0.9h1.8c0.6,0,0.9,0.4,0.9,0.9V21.2z"/>
	</g>
</svg>
