<svg version="1.1" id="Layer_1" xmlns="http://www.w3.org/2000/svg" xmlns:xlink="http://www.w3.org/1999/xlink" x="0px" y="0px"
	 viewBox="0 0 100 100" enable-background="new 0 0 100 100" xml:space="preserve">
<path fill-rule="evenodd" clip-rule="evenodd" d="M49.998,14.373c18.627,0,30.606,3.467,34.608,5.937
	c-4.002,2.472-15.98,5.941-34.608,5.941c-18.623,0-30.616-3.47-34.613-5.941C19.381,17.84,31.375,14.373,49.998,14.373z M97.5,20.31
	C97.5,2.999,54.856,2.5,49.998,2.5C45.128,2.5,2.5,2.999,2.5,20.31c0,2.716,1.135,4.964,2.922,6.924l32.703,36.833v27.496
	c0,3.282,2.654,5.938,5.937,5.938h11.875c3.269,0,5.939-2.655,5.939-5.938V64.066l32.469-36.589
	C96.268,25.472,97.5,23.137,97.5,20.31z"></path>
</svg>
