<svg version="1.1" id="Layer_1" xmlns="http://www.w3.org/2000/svg" xmlns:xlink="http://www.w3.org/1999/xlink" x="0px" y="0px"
	 viewBox="0 0 100 100" enable-background="new 0 0 100 100" xml:space="preserve">
<g>
	<g>
		<g>
			<g>
				<path d="M93.9,44.7L68.3,16.6c-0.7-0.8-1.8-1.3-2.9-1.3h-27v-3.9c0-2.1-1.7-3.9-3.9-3.9c-2.1,0-3.9,1.7-3.9,3.9v6.2L6,44.8
					C5,46,4.7,47.6,5.3,49c0.6,1.4,2,2.3,3.5,2.3h6.4h3.9H23h54h3.9h3.9h6.4c0,0,0,0,0,0c2.1,0,3.9-1.7,3.9-3.9
					C95,46.4,94.6,45.4,93.9,44.7z"></path>
			</g>
		</g>
		<g>
			<g>
				<path d="M80.9,59H77H23h-3.9h-3.9v29.6c0,2.1,1.7,3.9,3.9,3.9H41v-3.9v-3.9V73.1c0-2.1,1.7-3.9,3.9-3.9h10.3
					c2.1,0,3.9,1.7,3.9,3.9v11.6v3.9v3.9h21.9c2.1,0,3.9-1.7,3.9-3.9V59H80.9z"></path>
			</g>
		</g>
	</g>
</g>
</svg>
