<svg version="1.1" id="Layer_1" xmlns="http://www.w3.org/2000/svg" xmlns:xlink="http://www.w3.org/1999/xlink" x="0px" y="0px"
	 viewBox="0 0 24 24" enable-background="new 0 0 24 24;" xml:space="preserve">
	<path id="lock-icon" d="M21,11.4c-0.3-0.3-0.7-0.5-1.1-0.5h-0.5V7.6c0-2.1-0.7-3.9-2.2-5.4C15.8,0.7,14,0,12,0c-2,0-3.8,0.7-5.2,2.2
		C5.3,3.7,4.6,5.5,4.6,7.6v3.3H4.1c-0.4,0-0.8,0.2-1.1,0.5c-0.3,0.3-0.5,0.7-0.5,1.2v9.8c0,0.5,0.2,0.8,0.5,1.2
		C3.3,23.8,3.6,24,4.1,24h15.9c0.4,0,0.8-0.2,1.1-0.5c0.3-0.3,0.5-0.7,0.5-1.2v-9.8C21.5,12.1,21.4,11.7,21,11.4 M16.2,10.9H7.8V7.6
		c0-1.2,0.4-2.2,1.2-3.1c0.8-0.9,1.8-1.3,3-1.3c1.2,0,2.2,0.4,3,1.3c0.8,0.9,1.2,1.9,1.2,3.1V10.9z"/>
</svg>
