<svg version="1.1" x="0px" y="0px" viewBox="0 0 132.8 30.7" xmlns="http://www.w3.org/2000/svg" enable-background="new 0 0 132.8 30.7" xml:space="preserve">
<g id="Copyright">
	<path id="loj-logo-copyright-circle" d="M130.9,0c-1,0-1.7,0.8-1.7,1.7c0,1,0.8,1.7,1.7,1.7c1,0,1.7-0.8,1.7-1.7
		C132.7,0.8,131.9,0,130.9,0z M130.9,3.2c-0.8,0-1.5-0.7-1.5-1.5c0-0.8,0.7-1.5,1.5-1.5c0.8,0,1.5,0.6,1.5,1.5
		C132.4,2.5,131.8,3.2,130.9,3.2z"/>
	<path id="loj-logo-copyright-r_1_" d="M131.2,1.9c0.1,0,0.5-0.1,0.5-0.6c0-0.4-0.3-0.6-0.6-0.6h-0.8v2h0.3V1.9h0.3l0.5,0.8h0.3
		L131.2,1.9z M130.6,1.7V1h0.5c0.2,0,0.4,0.1,0.4,0.4c0,0.2-0.2,0.3-0.4,0.3H130.6z"/>
</g>
<g id="C">
	<path id="loj-logo-c" d="M122.5,23.8c-5.3,0-9.5-4.3-9.5-9.5c0-5.3,4.3-9.5,9.5-9.5c2.5,0,4.9,1,6.7,2.8l-1.7,1.7
		c-1.3-1.3-3.1-2.1-5-2.1c-3.9,0-7.1,3.2-7.1,7.1c0,3.9,3.2,7.1,7.1,7.1c1.9,0,3.7-0.7,5-2.1l1.7,1.7
		C127.4,22.8,125,23.8,122.5,23.8z"/>
</g>
<g id="I_1_">
	<rect id="loj-logo-j_1_" x="108" y="4.7" width="2.5" height="19.1"/>
	<rect id="loj-logo-j-dot_1_" x="108" y="0" width="2.5" height="2.4"/>
</g>
<g id="T">
	<path id="loj-logo-t" d="M100.4,7.1h4.5V4.7h-4.5l0-4.7H98v4.7h-4.5v2.5H98v10.5c0,0.4,0,2.7,1.6,4.4c1.1,1.2,2.6,1.7,4.6,1.7v-2.5
		c-1.2,0-2.1-0.3-2.8-1c-1-1-0.9-2.7-0.9-2.7V7.1z"/>
</g>
<g id="S">
	<path id="loj-logo-s" d="M87.1,23.8h-6.7v-2.5h6.7c1.7,0,3.1-1.3,3.1-2.9c0-1.6-1.4-2.9-3.1-2.9h-2.4c-3.1,0-5.6-2.4-5.6-5.4
		c0-3,2.5-5.4,5.6-5.4h6v2.5h-6c-1.7,0-3.1,1.3-3.1,2.9c0,1.6,1.4,2.9,3.1,2.9h2.4c3.1,0,5.6,2.4,5.6,5.4
		C92.7,21.4,90.2,23.8,87.1,23.8z"/>
</g>
<g id="I">
	<rect id="loj-logo-i" x="73.4" y="4.7" width="2.5" height="19.1"/>
	<rect id="loj-logo-i-dot" x="73.4" y="0" width="2.5" height="2.4"/>
</g>
<g id="J">
	<path id="loj-logo-j" d="M66.7,4.8v14c0,8.1-2.3,9.9-3.9,11.6h2.4c1.5-1.5,3.7-4.1,3.7-11.6v-14H66.7z"/>
	<rect id="loj-logo-j-dot" x="66.5" y="0" width="2.5" height="2.4"/>
</g>
<g id="O">
	<path id="loj-logo-o" d="M54,23.8c-5.3,0-9.5-4.3-9.5-9.5c0-5.3,4.3-9.5,9.5-9.5c5.3,0,9.5,4.3,9.5,9.5
		C63.5,19.5,59.2,23.8,54,23.8z M54,7.1c-3.9,0-7.1,3.2-7.1,7.1c0,3.9,3.2,7.1,7.1,7.1c3.9,0,7.1-3.2,7.1-7.1
		C61,10.3,57.9,7.1,54,7.1z"/>
</g>
<g id="L">
	<polygon id="loj-logo-l" points="43,23.8 29.6,23.8 29.6,0 32.1,0 32.1,21.3 43,21.3 	"/>
</g>
<g id="Logo_Icon_Bottom">
	<path id="loj-logo-bottom" d="M23.8,23.8H11.5c0,0-11.5,0.5-11.5-9.4c0,0,0.4,6.3,11.3,6.3h12.5V23.8z"/>
</g>
<g id="Logo_Icon_Top">
	<path id="loj-logo-top" d="M3.1,0H2.8h-2H0v0.3v2.4v9.9c0,0,0.2,2.3,2.6,4.4c0.1,0.1,0.3,0.2,0.4,0.3V3.1h17.7v16.3h3.1V3.1h0V2.8
		V0H3.1z"/>
</g>
</svg>
