<svg version="1.1" xmlns="http://www.w3.org/2000/svg" x="0px" y="0px" viewBox="0 0 24 24" enable-background="new 0 0 24 24" xml:space="preserve">
<path d="M23.3,20.9l-4.4-4.3c1.3-1.7,2.1-3.6,2.1-5.9c0-5.5-4.6-10-10.3-10S0.3,5.2,0.3,10.7s4.7,10,10.4,10c2.4,0,4.6-0.7,6.2-2
	l4.4,4.2c0.3,0.3,0.7,0.4,1,0.4s0.7-0.1,1-0.4C23.9,22.3,23.9,21.5,23.3,20.9z M10.6,17.7c-4.1,0-7.5-3.1-7.5-7s3.4-7.2,7.5-7.2
	s7.5,3.2,7.5,7.2C18.1,14.6,14.7,17.7,10.6,17.7z"/>
<path d="M10.6,17.7c-4.1,0-7.5-3.1-7.5-7s3.4-7.2,7.5-7.2s7.5,3.2,7.5,7.2C18.1,14.6,14.7,17.7,10.6,17.7z
	 M18.9,16.6c1.3-1.7,2.1-3.6,2.1-5.9c0-5.5-4.6-10-10.3-10S0.3,5.2,0.3,10.7s4.7,10,10.4,10c2.4,0,4.6-0.7,6.2-2l4.4,4.2
	c0.3,0.3,0.7,0.4,1,0.4s0.7-0.1,1-0.4c0.6-0.6,0.6-1.4,0-2L18.9,16.6z"/>
</svg>
