<svg version="1.1" xmlns="http://www.w3.org/2000/svg" x="0px" y="0px" viewBox="0 0 24 24" enable-background="new 0 0 24 24" xml:space="preserve">
    <path d="M18.2,5.1l-1.1,1.5c2.4,1.9,3.7,5,3.2,8c-0.4,2.2-1.6,4.2-3.4,5.5c-1.8,1.3-4.1,1.9-6.3,1.5c-4.7-0.6-7.8-5-7.1-9.6
        c0.4-2.2,1.6-4.2,3.4-5.5c1.6-1.2,3.5-1.7,5.5-1.6l-1.6,1.7l1.2,1L14.5,5l0,0l1.1-1.2l-1.2-1.1l0,0l-2.6-2.5l-1.1,1.2L12.4,3
        C10,2.9,7.7,3.6,5.8,5c-2.2,1.6-3.7,4-4.1,6.8c-0.9,5.6,3,10.9,8.6,11.8c0.5,0.1,1.1,0.1,1.6,0.1c2.2,0,4.3-0.7,6.1-2
        c2.2-1.6,3.7-4,4.1-6.8C22.7,11.2,21.2,7.5,18.2,5.1L18.2,5.1z"/>
    <path d="M12.9,18.6v-1.1c1.3-0.1,2.5-0.9,2.5-2.4c0-2.1-1.9-2.3-3.3-2.5c-0.9-0.1-1.6-0.2-1.6-0.8c0-0.8,1.1-0.8,1.5-0.8
        c0.7,0,1.4,0.3,1.6,0.7l0.1,0.1l1.4-0.6L15,11.1c-0.5-1.1-1.5-1.4-2.2-1.5v-1h-1.6v0.9c-1.5,0.2-2.4,1.1-2.4,2.3
        c0,2,1.8,2.2,3.1,2.3c1.2,0.1,1.7,0.4,1.7,0.9c0,0.9-1.3,1-1.7,1c-0.9,0-1.7-0.4-1.9-1v-0.1l-1.5,0.6l0.1,0.1
        c0.5,1.1,1.4,1.7,2.7,1.9v1h1.6V18.6z"/>
</svg>
