<svg version="1.1" x="0px" y="0px" xmlns="http://www.w3.org/2000/svg" viewBox="0 0 120 120" enable-background="new 0 0 120 120" xml:space="preserve">
<g>
	<path class="st0" d="M120,60.2c0-33.1-26.9-60-60-60c-33.1,0-60,26.9-60,60c0,33.1,26.9,60,60,60C93.1,120.2,120,93.3,120,60.2
		L120,60.2z M65.9,60.1c0,3.1-2.5,5.7-5.7,5.7c-3.1,0-5.7-2.5-5.7-5.7V30.5c0-3.1,2.6-5.7,5.7-5.7c3.1,0,5.7,2.5,5.7,5.7V60.1z
		 M98.7,60.3C98.7,81.7,81.4,99,60,99c-21.4,0-38.7-17.4-38.7-38.7c0-10.4,4-20.1,11.4-27.4c1.1-1.1,2.6-1.7,4-1.7
		c1.5,0,2.9,0.6,4,1.7c2.2,2.2,2.2,5.8,0,8c-5.2,5.2-8,12-8,19.4c0,15.1,12.3,27.3,27.4,27.3c15.1,0,27.4-12.3,27.4-27.3
		c0-7.3-2.8-14.2-8-19.3c-2.2-2.2-2.2-5.8,0-8.1c2.2-2.2,5.8-2.2,8,0C94.7,40.2,98.7,50,98.7,60.3L98.7,60.3z M98.7,60.3"/>
</g>
</svg>
