<svg version="1.1" id="Layer_1" xmlns="http://www.w3.org/2000/svg" xmlns:xlink="http://www.w3.org/1999/xlink" x="0px" y="0px"
	 viewBox="0 0 24 24" style="enable-background:new 0 0 24 24;" xml:space="preserve">
<path id="bell-icon" d="M22.7,19.1l-3-4.1V9.9c0-3.4-2.7-6.3-6.2-6.9V1.4C13.5,0.6,12.8,0,12,0s-1.5,0.6-1.5,1.4V3
	C7,3.6,4.3,6.5,4.3,9.9V15l-3,4.1c-0.3,0.4-0.4,1-0.1,1.4C1.4,21,2,21.3,2.5,21.3h6.2C8.9,22.8,10.3,24,12,24s3.1-1.2,3.3-2.7h6.2
	c0.6,0,1.1-0.3,1.4-0.7C23.1,20.1,23.1,19.5,22.7,19.1z"/>
</svg>
