<svg version="1.1" id="Layer_1" xmlns="http://www.w3.org/2000/svg" xmlns:xlink="http://www.w3.org/1999/xlink" x="0px" y="0px"
   viewBox="0 0 95.417 71.417" enable-background="new 0 0 95.417 71.417" xml:space="preserve">
<polygon fill="#FFFFFF" points="68.226,5.15 39.578,13.986 39.578,22.421 62.871,32.461 91.385,21.883 91.385,12.916 "/>
<path fill="#999999" d="M86.002,64.176c-0.81,0-1.271,0.402-1.271,1.031c0,0.554,0.362,0.729,0.891,1.082
  c0.335,0.221,0.515,0.391,0.515,0.688c0,0.343-0.268,0.625-0.683,0.625c-0.36,0-0.543-0.178-0.543-0.526
  c0-0.062,0.008-0.127,0.013-0.194h-0.617c-0.021,0.112-0.036,0.224-0.036,0.322c0,0.586,0.392,0.897,1.129,0.897
  c0.871,0,1.391-0.469,1.391-1.189c0-0.446-0.217-0.716-0.668-1.026c-0.435-0.297-0.761-0.41-0.761-0.75
  c0-0.291,0.231-0.482,0.604-0.482c0.392,0,0.549,0.154,0.549,0.516v0.101h0.632c0.006-0.055,0.006-0.101,0.006-0.142
  C87.153,64.494,86.768,64.176,86.002,64.176"/>
<path fill="#999999" d="M82.49,64.176c-0.811,0-1.273,0.402-1.273,1.031c0,0.554,0.367,0.729,0.893,1.082
  c0.336,0.221,0.515,0.391,0.515,0.688c0,0.343-0.268,0.625-0.687,0.625c-0.354,0-0.54-0.178-0.54-0.526
  c0-0.062,0.006-0.127,0.014-0.194h-0.618c-0.021,0.112-0.038,0.224-0.038,0.322c0,0.586,0.395,0.897,1.133,0.897
  c0.867,0,1.389-0.469,1.389-1.189c0-0.446-0.215-0.716-0.669-1.026c-0.431-0.297-0.757-0.41-0.757-0.75
  c0-0.291,0.229-0.482,0.601-0.482c0.395,0,0.551,0.154,0.551,0.516v0.101h0.632c0.005-0.055,0.005-0.101,0.005-0.142
  C83.64,64.494,83.256,64.176,82.49,64.176"/>
<path fill="#999999" d="M79.35,65.812h-1.49c0.167-0.768,0.395-1.101,0.917-1.101c0.409,0,0.607,0.236,0.607,0.704
  C79.383,65.525,79.369,65.66,79.35,65.812 M78.791,64.198c-0.618,0-1.011,0.22-1.294,0.729c-0.111,0.2-0.229,0.556-0.333,1.047
  c-0.089,0.416-0.135,0.736-0.135,0.966c0,0.73,0.461,1.17,1.242,1.17c0.846,0,1.316-0.4,1.502-1.289h-0.671
  c-0.125,0.514-0.355,0.767-0.727,0.767c-0.469,0-0.699-0.208-0.699-0.633c0-0.215,0.031-0.437,0.083-0.683h2.155
  c0.073-0.372,0.12-0.661,0.12-0.864C80.032,64.619,79.601,64.198,78.791,64.198"/>
<polygon fill="#999999" points="75.306,62.667 74.61,62.667 73.468,68.021 75.998,68.021 76.124,67.416 74.303,67.416 "/>
<path fill="#999999" d="M69.748,64.911l0.112-0.624h-0.615c-0.029,0.269-0.068,0.55-0.129,0.823l-0.623,2.911h0.638l0.426-1.899
  c0.2-0.897,0.458-1.277,1.167-1.277h0.116l0.128-0.58c-0.074-0.007-0.142-0.014-0.203-0.014
  C70.306,64.251,69.99,64.464,69.748,64.911"/>
<path fill="#999999" d="M67.017,66.214c-0.112,0.48-0.2,0.8-0.274,0.935c-0.164,0.299-0.374,0.432-0.692,0.432
  c-0.4,0-0.626-0.221-0.626-0.622c0-0.256,0.038-0.545,0.12-0.894c0.113-0.506,0.221-0.809,0.277-0.906
  c0.163-0.297,0.37-0.438,0.689-0.438c0.417,0,0.625,0.235,0.625,0.688C67.135,65.589,67.098,65.855,67.017,66.214 M66.524,64.197
  c-0.593,0-0.994,0.228-1.277,0.73c-0.097,0.161-0.215,0.505-0.328,1.017c-0.094,0.439-0.139,0.776-0.139,1.004
  c0,0.7,0.467,1.162,1.231,1.162c0.625,0,1.019-0.225,1.295-0.715c0.109-0.2,0.246-0.566,0.359-1.085
  c0.08-0.39,0.116-0.699,0.116-0.938C67.782,64.629,67.329,64.197,66.524,64.197"/>
<polygon fill="#999999" points="60.915,68.021 61.621,68.021 62.142,65.559 63.848,65.559 63.974,64.955 62.271,64.955
  62.634,63.27 64.425,63.27 64.561,62.667 62.052,62.667 "/>
<path fill="#999999" d="M56.487,66.793c-0.134,0.26-0.24,0.534-0.314,0.817c0.007-0.125,0.007-0.247,0.007-0.364
  c0-0.334-0.02-0.64-0.044-0.922l-0.142-2.038h-0.632l0.374,3.837l-0.683,1.312h0.654l2.729-5.148h-0.663L56.487,66.793z"/>
<path fill="#999999" d="M53.636,64.911l0.114-0.624h-0.618c-0.031,0.269-0.066,0.55-0.128,0.823l-0.625,2.911h0.641l0.422-1.899
  c0.201-0.897,0.462-1.277,1.167-1.277h0.12l0.126-0.58c-0.073-0.007-0.139-0.014-0.2-0.014
  C54.194,64.251,53.875,64.464,53.636,64.911"/>
<path fill="#999999" d="M50.986,65.812h-1.488c0.164-0.768,0.396-1.101,0.915-1.101c0.409,0,0.61,0.236,0.61,0.704
  C51.023,65.525,51.008,65.66,50.986,65.812 M50.429,64.198c-0.618,0-1.011,0.22-1.293,0.729c-0.111,0.2-0.233,0.556-0.336,1.047
  c-0.09,0.416-0.133,0.736-0.133,0.966c0,0.73,0.461,1.17,1.243,1.17c0.847,0,1.315-0.4,1.501-1.289H50.74
  c-0.125,0.514-0.357,0.767-0.729,0.767c-0.467,0-0.698-0.208-0.698-0.633c0-0.215,0.032-0.437,0.082-0.683h2.159
  c0.072-0.372,0.115-0.661,0.115-0.864C51.668,64.619,51.239,64.198,50.429,64.198"/>
<path fill="#999999" d="M46.341,66.802c-0.132,0.251-0.229,0.525-0.312,0.809v-0.247c0-0.384-0.013-0.733-0.035-1.039l-0.141-2.038
  h-0.633l0.344,3.734h0.742l1.986-3.734h-0.661L46.341,66.802z"/>
<polygon fill="#999999" points="44.028,62.667 43.885,63.32 44.578,63.32 44.711,62.667 "/>
<polygon fill="#999999" points="42.904,68.021 43.544,68.021 44.341,64.286 43.701,64.286 "/>
<polygon fill="#999999" points="40.903,68.021 41.55,68.021 42.689,62.667 42.042,62.667 "/>
<path fill="#999999" d="M39.486,65.812H38c0.163-0.768,0.391-1.101,0.914-1.101c0.411,0,0.612,0.236,0.612,0.704
  C39.526,65.525,39.509,65.66,39.486,65.812 M38.929,64.198c-0.618,0-1.011,0.22-1.295,0.729c-0.11,0.2-0.229,0.556-0.332,1.047
  c-0.093,0.416-0.134,0.736-0.134,0.966c0,0.73,0.458,1.17,1.242,1.17c0.846,0,1.316-0.4,1.501-1.289h-0.668
  c-0.127,0.514-0.359,0.767-0.731,0.767c-0.468,0-0.7-0.208-0.7-0.633c0-0.215,0.031-0.437,0.083-0.683h2.159
  c0.074-0.372,0.116-0.661,0.116-0.864C40.17,64.619,39.739,64.198,38.929,64.198"/>
<path fill="#999999" d="M35.482,65.462c-0.126,0.632-0.253,1.062-0.371,1.31c-0.298,0.6-0.618,0.661-1.361,0.661h-0.588l0.885-4.18
  h0.728c0.663,0,0.885,0.172,0.885,0.795C35.661,64.331,35.61,64.8,35.482,65.462 M34.821,62.667h-1.352l-1.14,5.354h1.449
  c1.021,0,1.541-0.158,1.965-0.969c0.171-0.332,0.349-0.908,0.498-1.717c0.112-0.58,0.165-1.013,0.165-1.316
  C36.406,63.043,35.906,62.667,34.821,62.667"/>
<path fill="#999999" d="M28.644,65.812h-1.486c0.163-0.768,0.394-1.101,0.911-1.101c0.41,0,0.612,0.236,0.612,0.704
  C28.682,65.525,28.665,65.66,28.644,65.812 M28.088,64.198c-0.62,0-1.012,0.22-1.296,0.729c-0.112,0.2-0.231,0.556-0.333,1.047
  c-0.089,0.416-0.134,0.736-0.134,0.966c0,0.73,0.461,1.17,1.241,1.17c0.848,0,1.317-0.4,1.503-1.289h-0.67
  c-0.126,0.514-0.357,0.767-0.726,0.767c-0.469,0-0.702-0.208-0.702-0.633c0-0.215,0.032-0.437,0.085-0.683h2.154
  c0.075-0.372,0.118-0.661,0.118-0.864C29.327,64.619,28.895,64.198,28.088,64.198"/>
<path fill="#999999" d="M24.706,64.203c-0.468,0-0.826,0.234-1.108,0.709c-0.036-0.454-0.304-0.709-0.743-0.709
  c-0.41,0-0.768,0.215-1.033,0.633l0.103-0.55h-0.603c-0.043,0.298-0.088,0.589-0.148,0.857l-0.61,2.877h0.641l0.379-1.771
  c0.216-0.996,0.422-1.546,1.002-1.546c0.252,0,0.396,0.158,0.396,0.464c0,0.094-0.016,0.214-0.044,0.354L22.4,68.021h0.625
  l0.38-1.771c0.218-1.013,0.438-1.546,1.004-1.546c0.251,0,0.378,0.158,0.378,0.464c0,0.048-0.014,0.171-0.051,0.354l-0.53,2.499
  h0.649l0.513-2.44c0.044-0.208,0.074-0.378,0.074-0.519C25.442,64.522,25.152,64.203,24.706,64.203"/>
<polygon fill="#999999" points="18.607,68.021 19.247,68.021 20.043,64.286 19.402,64.286 "/>
<polygon fill="#999999" points="19.729,62.667 19.589,63.32 20.278,63.32 20.413,62.667 "/>
<polygon fill="#999999" points="18.746,62.667 15.458,62.667 15.323,63.284 16.633,63.284 15.629,68.021 16.328,68.021
  17.331,63.284 18.613,63.284 "/>
<path fill="#999999" d="M10.969,64.203c-0.482,0-0.862,0.212-1.153,0.633l0.104-0.55H9.319c-0.045,0.298-0.088,0.589-0.149,0.857
  l-0.61,2.877h0.639l0.38-1.771c0.216-1.018,0.484-1.546,1.101-1.546c0.282,0,0.431,0.158,0.431,0.464
  c0,0.086-0.024,0.205-0.053,0.354l-0.526,2.499h0.64l0.512-2.44c0.045-0.225,0.073-0.394,0.073-0.519
  C11.756,64.51,11.459,64.203,10.969,64.203"/>
<path fill="#999999" d="M7.022,65.855c-0.11,0.507-0.22,0.863-0.341,1.082c-0.224,0.383-0.528,0.561-0.996,0.561
  c-0.542,0-0.819-0.281-0.819-0.853c0-0.283,0.121-0.896,0.328-1.823c0.134-0.577,0.271-0.946,0.344-1.077
  c0.229-0.396,0.518-0.566,0.986-0.566c0.56,0,0.828,0.283,0.828,0.869C7.352,64.37,7.224,64.965,7.022,65.855 M6.578,62.579
  c-0.78,0-1.301,0.288-1.665,0.919c-0.112,0.188-0.283,0.67-0.463,1.436c-0.192,0.839-0.281,1.422-0.281,1.748
  c0,0.929,0.514,1.429,1.472,1.429c0.775,0,1.308-0.306,1.667-0.934c0.148-0.258,0.303-0.72,0.453-1.38
  c0.186-0.842,0.29-1.446,0.29-1.802C8.051,63.067,7.539,62.579,6.578,62.579"/>
<path fill="#999999" d="M60.535,14.439l7.149-2.589c0.293-0.106,0.429-0.4,0.307-0.651c-0.129-0.259-0.467-0.38-0.762-0.273
  l-7.165,2.578c-0.303,0.109-0.445,0.406-0.312,0.665C59.881,14.428,60.232,14.548,60.535,14.439"/>
<path fill="#999999" d="M48.294,14.486l5.236-1.753c0.218-0.074,0.319-0.289,0.226-0.479c-0.092-0.186-0.345-0.283-0.563-0.21
  l-5.238,1.759c-0.219,0.073-0.321,0.286-0.229,0.475C47.822,14.467,48.073,14.56,48.294,14.486"/>
<path fill="#999999" d="M49.553,14.984c0.092,0.19,0.343,0.284,0.562,0.209l5.235-1.758c0.219-0.071,0.323-0.285,0.229-0.475
  c-0.093-0.189-0.346-0.283-0.565-0.211l-5.238,1.761C49.559,14.583,49.458,14.797,49.553,14.984"/>
<path fill="#999999" d="M61.975,15.115c0.125,0.255,0.471,0.375,0.773,0.265l7.09-2.587c0.294-0.107,0.429-0.401,0.304-0.656
  c-0.123-0.251-0.461-0.372-0.754-0.267l-7.105,2.581C61.98,14.559,61.843,14.858,61.975,15.115"/>
<path fill="#999999" d="M64.47,16.011c0.129,0.255,0.474,0.373,0.771,0.264l7.025-2.589c0.287-0.104,0.422-0.397,0.297-0.649
  c-0.124-0.251-0.457-0.372-0.745-0.267l-7.039,2.583C64.483,15.458,64.341,15.756,64.47,16.011"/>
<path fill="#999999" d="M84.104,52.613c0,2.531-0.894,3.588-2.526,3.588c-1.632,0-2.529-1.057-2.529-3.588v-8.078
  c0-2.526,0.897-3.59,2.529-3.59c1.632,0,2.526,1.063,2.526,3.59v0.574h4.567c-0.078-4.694-1.957-7.913-7.093-7.913
  c-5.22,0-7.096,3.343-7.096,8.157V51.8c0,4.812,1.876,8.153,7.096,8.153c5.222,0,7.093-3.341,7.093-8.153v-0.574h-4.567V52.613z"/>
<path fill="#999999" d="M67.994,54.161c-0.774,1.102-1.796,2.038-3.056,2.038c-1.39,0-2.123-0.567-2.123-1.994
  c0-1.918,1.022-3.426,5.179-5.793V54.161z M72.562,43.149c0-3.995-2.405-5.953-6.647-5.953c-4.282,0-7.095,2.405-7.343,6.85h4.573
  c0.078-1.877,0.525-3.102,2.608-3.102c1.508,0,2.241,0.98,2.241,2.815v1.305c-6.566,2.489-9.748,5.14-9.748,9.956
  c0,2.812,1.552,4.932,4.65,4.932c2.202,0,3.63-0.733,5.342-2.119c0.043,0.528,0.207,1.102,0.246,1.714h4.365
  c-0.123-0.735-0.287-1.633-0.287-2.325V43.149z"/>
<path fill="#999999" d="M55.556,41.52c1.346,0,2.122,0.242,2.937,0.446v-4.769h-0.939c-2.161,0-4.079,1.1-5.178,2.976h-0.082v-2.567
  h-4.364v21.942h4.567V44.455C52.497,42.5,54.005,41.52,55.556,41.52"/>
<polygon fill="#999999" points="39.195,59.548 44.254,59.548 44.254,34.501 49.148,34.501 49.148,30.098 34.302,30.098
  34.302,34.501 39.195,34.501 "/>
<path fill="#cccccc" d="M30.222,37.197c-2.651,0-3.63,0.977-5.547,2.608v-2.199h-4.323v21.942h4.569V42.332
  c1.06-0.772,1.958-1.387,2.938-1.387c0.977,0,1.628,0.491,1.628,1.593v17.01h4.568V41.804
  C34.056,38.949,32.629,37.197,30.222,37.197"/>
<path fill="#cccccc" d="M13.093,52.289c0,2.199-0.653,3.26-2.692,3.26s-2.692-1.061-2.692-3.26V37.358
  c0-2.203,0.653-3.265,2.692-3.265s2.692,1.062,2.692,3.265V52.289z M10.4,29.69c-5.302,0-7.751,3.385-7.751,7.546v15.17
  c0,4.162,2.449,7.547,7.751,7.547c5.303,0,7.75-3.385,7.75-7.547v-15.17C18.15,33.075,15.703,29.69,10.4,29.69"/>
<path fill="#cccccc" d="M14.885,10.868c-1.809,1.233-3.823,3.035-4.885,4.422c12.816-8.02,27.417-4.14,27.535-4.105
  c0.143-0.044,27.519-8.518,27.519-8.518S35.728-3.355,14.885,10.868"/>
<path fill="#cccccc" d="M1.985,26.854c3.724-2.741,16.065-12.223,34.32-4.584c0,0-0.001-8.009,0-9.27
  C16.62,9.626,6.238,19.001,1.985,26.854"/>
<path fill="#cccccc" d="M92.479,12.505c0-0.001,0.025-0.707-0.756-1.05c-0.04-0.018-23.394-7.643-23.394-7.643
  c-0.219-0.071-0.465-0.075-0.683-0.005l-28.706,8.88c-0.719,0.287-0.792,0.905-0.798,1.033v8.98c0,0.455,0.273,0.865,0.695,1.04
  l23.501,9.846c0.469,0.365,1.048,0.205,1.18,0.157l28.234-10.711c0.44-0.169,0.729-0.59,0.729-1.059
  C92.482,21.973,92.479,12.512,92.479,12.505 M90.22,21.192l-26.094,9.899v-7.074l26.094-9.86V21.192z M63.003,22.023l-20.339-8.12
  l25.304-7.829L87.946,12.6L63.003,22.023z M61.861,30.931l-21.457-8.985v-6.512l21.457,8.568V30.931z"/>
<path fill="#999999" d="M89.368,36.007v0.036c0,0.255,0.086,0.37,0.295,0.37c0.199,0,0.339-0.133,0.339-0.308
  c0-0.193-0.173-0.279-0.456-0.459c-0.297-0.188-0.45-0.301-0.45-0.589c0-0.301,0.235-0.514,0.595-0.514
  c0.363,0,0.562,0.187,0.562,0.529v0.049h-0.276v-0.041c0-0.216-0.101-0.328-0.296-0.328c-0.188,0-0.313,0.123-0.313,0.273
  c0,0.221,0.192,0.314,0.514,0.524c0.257,0.167,0.392,0.282,0.392,0.517c0,0.352-0.221,0.557-0.615,0.557
  c-0.39,0-0.588-0.185-0.588-0.555c0-0.018,0.003-0.039,0.003-0.06H89.368z"/>
<path fill="#999999" d="M90.626,34.575h0.428l0.434,1.384c0.018,0.059,0.044,0.165,0.083,0.319c0.033-0.168,0.061-0.275,0.076-0.321
  l0.422-1.383h0.413v2.013h-0.245v-1.44c0-0.077,0-0.221,0.005-0.422l-0.568,1.862h-0.226l-0.582-1.88
  c0.005,0.144,0.008,0.311,0.008,0.497v1.383h-0.249V34.575z"/>
</svg>
