<svg version="1.1" xmlns="http://www.w3.org/2000/svg" x="0px" y="0px" viewBox="2 0 12 10" enable-background="new 0 0 13 10" xml:space="preserve">
			<g transform="translate(-10, -45)">
				<path d="M10.757,45 C10.339,45 10,45.339 10,45.757 L10,54.457 C10,54.875 10.339,55.214 10.757,55.214 C11.174,55.214 11.513,54.875 11.513,54.457 L11.513,45.757 C11.513,45.339 11.174,45 10.757,45 Z M21.7273,49.1613 L16.1753,49.1613 L17.6863,47.8393 C18.0003,47.5643 18.0323,47.0863 17.7573,46.7713 C17.4823,46.4573 17.0043,46.4253 16.6893,46.7003 L13.6633,49.3483 C13.6573,49.3533 13.6533,49.3603 13.6473,49.3653 C13.6243,49.3873 13.6033,49.4103 13.5833,49.4353 C13.5713,49.4503 13.5573,49.4643 13.5463,49.4803 C13.5263,49.5083 13.5103,49.5383 13.4943,49.5683 C13.4863,49.5833 13.4773,49.5973 13.4703,49.6133 C13.4543,49.6493 13.4433,49.6873 13.4333,49.7253 C13.4293,49.7373 13.4243,49.7483 13.4223,49.7603 C13.4113,49.8113 13.4053,49.8633 13.4053,49.9183 C13.4053,49.9723 13.4113,50.0243 13.4223,50.0753 C13.4243,50.0873 13.4293,50.0983 13.4333,50.1103 C13.4433,50.1483 13.4543,50.1863 13.4703,50.2223 C13.4773,50.2383 13.4863,50.2523 13.4943,50.2673 C13.5103,50.2973 13.5263,50.3273 13.5463,50.3553 C13.5573,50.3713 13.5713,50.3853 13.5833,50.4003 C13.6033,50.4253 13.6243,50.4483 13.6473,50.4703 C13.6533,50.4753 13.6573,50.4823 13.6633,50.4873 L16.6893,53.1353 C16.8333,53.2603 17.0113,53.3223 17.1873,53.3223 C17.3983,53.3223 17.6073,53.2353 17.7573,53.0643 C18.0323,52.7493 18.0003,52.2713 17.6863,51.9963 L16.1753,50.6743 L21.7273,50.6743 C22.1453,50.6743 22.4843,50.3353 22.4843,49.9183 C22.4843,49.5003 22.1453,49.1613 21.7273,49.1613 Z"></path>
			</g>
</svg>