<svg version="1.1" id="Layer_1" xmlns="http://www.w3.org/2000/svg" xmlns:xlink="http://www.w3.org/1999/xlink" x="0px" y="0px"
	 viewBox="0 0 100 100" enable-background="new 0 0 100 100" xml:space="preserve">
<path d="M50,5C25.1,5,5,25.1,5,50c0,24.9,20.1,45,45,45c24.9,0,45-20.1,45-45C95,25.1,74.9,5,50,5z M26.5,48h-3.9
	c0-3,0.4-5.9,1.3-8.4l3.7,1.2C26.9,42.9,26.5,45.5,26.5,48z M50,59.8c-5.4,0-9.8-4.4-9.8-9.8c0-2,0.6-3.9,1.7-5.5L27.1,29.9l2.8-2.8
	l14.8,14.7c1.5-1,3.3-1.6,5.3-1.6c5.4,0,9.8,4.4,9.8,9.8C59.8,55.4,55.4,59.8,50,59.8z M73.5,48c0-11.8-9.7-21.5-21.5-21.5
	c-2.6,0-5.1,0.4-7.2,1.1l-1.2-3.7C46,23,49,22.6,52,22.6c14,0,25.4,11.4,25.4,25.4H73.5z"></path>
</svg>
