<svg version="1.1" class="menu-action-icon" xmlns="http://www.w3.org/2000/svg" xmlns:xlink="http://www.w3.org/1999/xlink" x="0px" y="0px"
	 viewBox="0 0 24 24" style="enable-background:new 0 0 24 24;" xml:space="preserve">
<g>
	<path id="security-inside-lock" d="M12,8.7c-0.4,0-0.8,0.2-1.1,0.5c-0.3,0.3-0.5,0.7-0.5,1.2v1.2h3.2v-1.2c0-0.5-0.2-0.8-0.5-1.2
		C12.8,8.9,12.4,8.7,12,8.7z"/>
	<path id="security-shield" d="M21.9,3.7c-4.1,0-7.2-1.2-9.9-3.7C9.3,2.6,6.2,3.7,2.1,3.7c0,6.7-1.4,16.3,9.9,20.3
		C23.3,20.1,21.9,10.5,21.9,3.7z M15.6,15.9c0,0.2-0.1,0.3-0.2,0.4c-0.1,0.1-0.3,0.2-0.4,0.2H9c-0.2,0-0.3-0.1-0.4-0.2
		c-0.1-0.1-0.2-0.3-0.2-0.4v-3.7c0-0.2,0.1-0.3,0.2-0.4c0.1-0.1,0.3-0.2,0.4-0.2h0.2v-1.2c0-0.8,0.3-1.5,0.8-2
		c0.5-0.6,1.2-0.8,2-0.8c0.8,0,1.4,0.3,2,0.8c0.5,0.6,0.8,1.2,0.8,2v1.2H15c0.2,0,0.3,0.1,0.4,0.2s0.2,0.3,0.2,0.4V15.9z"/>
</g>
</svg>
