<svg version="1.1" id="Layer_1" xmlns="http://www.w3.org/2000/svg" xmlns:xlink="http://www.w3.org/1999/xlink" x="0px" y="0px"
	 viewBox="0 0 100 100" enable-background="new 0 0 100 100" xml:space="preserve">
<path d="M93.6,42.5h-9.1c-2.9,0-5.4-1.8-6.6-4.6c-1.1-2.8-0.5-5.9,1.5-8.1l6.4-6.7c0.6-0.6,0.6-1.5,0-2.1l-8.2-8.6
	c-0.5-0.6-1.4-0.6-2,0l-6.4,6.7c-2.1,2.2-5,2.8-7.7,1.6c-2.7-1.2-4.4-3.8-4.4-6.8V4.5c0-0.8-0.6-1.5-1.4-1.5H44.2
	c-0.8,0-1.4,0.7-1.4,1.5V14c0,3.1-1.7,5.7-4.4,6.8c-2.7,1.2-5.7,0.5-7.7-1.6l-6.4-6.7c-0.6-0.6-1.4-0.6-2,0L14.1,21
	c-0.5,0.6-0.5,1.5,0,2.1l6.4,6.7c2.1,2.2,2.7,5.2,1.5,8.1c-1.1,2.8-3.6,4.6-6.5,4.6H6.4C5.6,42.5,5,43.2,5,44v12
	c0,0.8,0.6,1.5,1.4,1.5h9.1c2.9,0,5.4,1.7,6.5,4.6c1.1,2.8,0.5,5.9-1.5,8.1l-6.4,6.7c-0.5,0.6-0.5,1.5,0,2.1l8.2,8.5
	c0.6,0.6,1.4,0.6,2,0l6.4-6.7c1.4-1.4,3.1-2.2,5-2.2c0.9,0,1.9,0.2,2.8,0.6c2.7,1.2,4.4,3.8,4.4,6.8v9.5c0,0.8,0.6,1.5,1.4,1.5h11.6
	c0.8,0,1.4-0.7,1.4-1.5V86c0-3,1.7-5.7,4.4-6.8c2.7-1.2,5.7-0.6,7.7,1.6l6.4,6.7c0.5,0.6,1.4,0.6,2,0L86,79c0.6-0.6,0.6-1.5,0-2.1
	l-6.4-6.7c-2.1-2.2-2.7-5.2-1.5-8.1c1.1-2.8,3.6-4.6,6.6-4.6h9.1c0.8,0,1.4-0.7,1.4-1.5V43.9C95,43.1,94.4,42.5,93.6,42.5z M50,67.2
	c-9.1,0-16.4-7.7-16.4-17.2S40.9,32.8,50,32.8S66.5,40.5,66.5,50S59.1,67.2,50,67.2z"></path>
</svg>
