<svg version="1.1" id="Layer_1" xmlns="http://www.w3.org/2000/svg" xmlns:xlink="http://www.w3.org/1999/xlink" x="0px" y="0px"
	 viewBox="0 0 100 100" enable-background="new 0 0 100 100" xml:space="preserve">
<path d="M49.9,38v37l29.5-5.6v-18c0-0.7,0.7-1.3,1.4-1.3l3.6,0.6c0.6,0.1,1.1,0.6,1.1,1.3v21c0,0.6-0.4,1.1-1,1.2l-32.3,6.9
	c-1.6,0.3-3.2,0.3-4.7,0l-32-6.7c-0.6-0.1-1-0.6-1-1.2L14,51.9c0-0.7,0.5-1.2,1.2-1.3l27.2-2.4c0.5,0,0.9-0.3,1.1-0.8l4.1-9.9
	C47.9,36.2,49.9,36.6,49.9,38L49.9,38z M13.6,25.8L5.1,44c-0.4,0.9,0.3,1.9,1.3,1.8l32-3.2c0.5-0.1,0.8-0.3,1-0.7l10.3-23.2
	l-35.2,6.5C14.2,25.2,13.8,25.4,13.6,25.8L13.6,25.8z M49.7,18.6l10.9,23.9c0.2,0.4,0.6,0.7,1,0.7l32,2.6c1,0.1,1.7-0.9,1.3-1.8
	l-8.3-18.3c-0.2-0.4-0.5-0.6-0.9-0.7L49.7,18.6z"></path>
</svg>
