<svg version="1.1" id="Layer_1" xmlns="http://www.w3.org/2000/svg" xmlns:xlink="http://www.w3.org/1999/xlink" x="0px" y="0px"
	 viewBox="0 0 24 24" enable-background="new 0 0 24 24" xml:space="preserve">
<g>
	<path d="M23.3,3.2h-2.5V2.8c0-0.4-0.3-0.7-0.7-0.7h-0.3V0.7c0-0.4-0.3-0.7-0.7-0.7H12H4.9C4.5,0,4.2,0.3,4.2,0.7v1.3H3.9
		c-0.4,0-0.7,0.3-0.7,0.7v0.3H0.7C0.3,3.2,0,3.5,0,3.9v4.4C0,8.7,0.3,9,0.7,9h2.5v10.1H2.7c-0.4,0-0.7,0.3-0.7,0.7v1.3
		c0,0.4,0.3,0.7,0.7,0.7h2v1.4C4.7,23.7,5,24,5.4,24h2.5c0.4,0,0.7-0.3,0.7-0.7v-1.4H12h3.4v1.4c0,0.4,0.3,0.7,0.7,0.7h2.5
		c0.4,0,0.7-0.3,0.7-0.7v-1.4h2c0.4,0,0.7-0.3,0.7-0.7v-1.3c0-0.4-0.3-0.7-0.7-0.7h-0.5V9h2.5C23.7,9,24,8.7,24,8.3V3.9
		C24,3.5,23.7,3.2,23.3,3.2z M3.2,7.9H2.3c-0.4,0-0.7-0.3-0.7-0.7V5c0-0.4,0.3-0.7,0.7-0.7h0.9V7.9z M4.3,3.8c0-0.4,0.3-0.7,0.7-0.7
		h7h7c0.4,0,0.7,0.3,0.7,0.7v3.8c0,0.4-0.3,0.7-0.7,0.7h-7H5c-0.4,0-0.7-0.3-0.7-0.7V3.8z M5,19.2c-0.6,0-1.1-0.5-1.1-1.2
		s0.5-1.2,1.1-1.2c0.6,0,1.1,0.5,1.1,1.2S5.6,19.2,5,19.2z M14.4,20.3c0,0.4-0.3,0.7-0.7,0.7H12h-1.6c-0.4,0-0.7-0.3-0.7-0.7V20
		c0-0.4,0.3-0.7,0.7-0.7H12h1.6c0.4,0,0.7,0.3,0.7,0.7V20.3z M17.1,16.5c0,0.4-0.2,0.7-0.6,0.7H12H7.4c-0.3,0-0.6-0.3-0.6-0.7v-0.2
		c0-0.4,0.2-0.7,0.6-0.7H12h4.6c0.3,0,0.6,0.3,0.6,0.7V16.5z M17.2,14.8H12H6.8c-0.4,0-0.6-0.3-0.6-0.7v-0.2c0-0.4,0.3-0.7,0.6-0.7
		H12h5.2c0.4,0,0.6,0.3,0.6,0.7v0.2C17.9,14.5,17.6,14.8,17.2,14.8z M19,19.2c-0.6,0-1.1-0.5-1.1-1.2s0.5-1.2,1.1-1.2
		c0.6,0,1.1,0.5,1.1,1.2S19.6,19.2,19,19.2z M22.4,7.2c0,0.4-0.3,0.7-0.7,0.7h-0.9V4.3h0.9c0.4,0,0.7,0.3,0.7,0.7V7.2z"/>
</g>
</svg>
