<svg version="1.1" id="Layer_1" xmlns="http://www.w3.org/2000/svg" xmlns:xlink="http://www.w3.org/1999/xlink" x="0px" y="0px"
   viewBox="0 0 192.25 39.5" enable-background="new 0 0 192.25 39.5" xml:space="preserve">
<path fill-rule="evenodd" clip-rule="evenodd" fill="#4c4c4c" d="M189.742,30.404c0,2.07-1.602,3.682-3.682,3.682
  c-2.078,0-3.68-1.611-3.68-3.682c0-2.066,1.602-3.68,3.68-3.68C188.141,26.725,189.742,28.338,189.742,30.404L189.742,30.404
  L189.742,30.404z M182.951,30.404c0,1.762,1.326,3.156,3.109,3.156c1.777,0,3.105-1.395,3.105-3.156s-1.328-3.156-3.105-3.156
  C184.277,27.248,182.951,28.643,182.951,30.404L182.951,30.404L182.951,30.404z M185.248,32.535h-0.523v-4.256h1.633
  c0.963,0,1.381,0.414,1.381,1.178c0,0.75-0.49,1.09-1.061,1.188l1.264,1.891h-0.617l-1.193-1.891h-0.883V32.535L185.248,32.535
  L185.248,32.535z M185.939,30.197c0.645,0,1.277-0.018,1.277-0.74c0-0.596-0.494-0.732-1.006-0.732h-0.963v1.473H185.939
  L185.939,30.197z"/>
<polygon fill-rule="evenodd" clip-rule="evenodd" fill="#FFFFFF" points="46.493,34.875 53.189,3.38 9.35,3.38 2.655,34.875
  46.493,34.875 "/>
<path fill-rule="evenodd" clip-rule="evenodd" fill="#4c4c4c" d="M10.263,4.682c0,0,24.375,5.01,24.859,5.093
  c5.6,0.988,5.427,2.07,5.427,2.07c3.921-0.023,4.404,0.138,5.09,0.709c2.065,1.726-1.291,6.799-1.291,6.799
  C43.871,19.713,7.61,33.717,7.61,33.717h37.935L51.75,4.544L10.289,4.548L10.263,4.682L10.263,4.682z"/>
<path fill-rule="evenodd" clip-rule="evenodd" fill="#4c4c4c" d="M38.643,14.131c-0.55,0.272-1.989,0.419-2.658,0.479
  c-0.65,0.055-0.824,0.119-0.834,0.367c-0.01,0.222,0.096,0.35,1.023,0.35c2.13,0,5.965-0.805,7.12-0.437
  c0.609,0.192,0.116,1.284-0.379,2.71c-0.193,0.551,0.186,0.515,0.406,0.271c0.222-0.239,1.215-2.061,1.323-2.99
  c0.152-1.317-0.973-1.514-2.535-1.514h-2.478c-0.127,0-0.237,0.088-0.389,0.291C39.105,13.837,38.994,13.952,38.643,14.131
  L38.643,14.131z"/>
<path fill-rule="evenodd" clip-rule="evenodd" fill="#4c4c4c" d="M8.854,11.289L4.094,33.723c0,0,14.588-7.16,16.368-8.076
  c3.658-1.877,8.709-4.361,13.381-5.953c0.891-0.303,4.708-1.477,6.924-1.872c0.865-0.156,1.226-0.299,1.215-0.459
  c-0.031-0.461-0.894-0.487-2.361-0.419c-4.471,0.212-13.042,3.622-15.505,4.923l-2.784-8.626h17.789
  c0.796-2.241-10.529-1.928-10.885-1.951H8.857H8.854L8.854,11.289z"/>
<path fill-rule="evenodd" clip-rule="evenodd" fill="#4c4c4c" d="M62.167,15.678c-2.882,0-4.606-1.159-4.041-3.722
  c0.944-4.435,1.571-7.412,1.571-7.412h2.41c0,0-1.479,6.85-1.433,6.68c-0.379,1.693,0,2.714,1.845,2.732
  c1.767,0,2.671-1.021,3.034-2.732c0.211-0.98,1.433-6.68,1.433-6.68h2.41c-1.62,7.412,0,0-1.601,7.412
  C67.244,14.519,65.051,15.678,62.167,15.678L62.167,15.678z"/>
<polygon fill-rule="evenodd" clip-rule="evenodd" fill="#4c4c4c" points="79.001,15.48 75.97,15.48 73.266,7.369 73.22,7.369
  71.53,15.48 69.391,15.48 71.711,4.544 74.837,4.544 77.432,12.747 77.461,12.747 79.187,4.544 81.322,4.544 79.001,15.48 "/>
<polygon fill-rule="evenodd" clip-rule="evenodd" fill="#4c4c4c" points="83.727,15.48 81.322,15.48 83.637,4.544 86.05,4.544
  83.727,15.48 "/>
<polygon fill-rule="evenodd" clip-rule="evenodd" fill="#4c4c4c" points="96.495,6.283 93.093,6.283 91.142,15.48 88.73,15.48
  90.682,6.283 87.282,6.283 87.664,4.544 96.859,4.544 96.495,6.283 "/>
<polygon fill-rule="evenodd" clip-rule="evenodd" fill="#4c4c4c" points="106.029,6.283 100.52,6.283 99.912,9.136 104.713,9.136
  104.363,10.75 99.561,10.75 98.936,13.74 104.439,13.74 104.072,15.48 96.146,15.48 98.48,4.544 106.393,4.544 106.029,6.283 "/>
<path fill-rule="evenodd" clip-rule="evenodd" fill="#4c4c4c" d="M110.775,15.48h-4.941l2.32-10.936h5.307
  c3.307,0,4.422,2.198,3.949,4.986C116.754,13.469,113.824,15.48,110.775,15.48L110.775,15.48L110.775,15.48z M112.666,6.283h-2.457
  l-1.584,7.457h1.723c2.729,0,4.301-1.784,4.727-4.237C115.381,7.764,114.664,6.283,112.666,6.283L112.666,6.283z"/>
<path fill-rule="evenodd" clip-rule="evenodd" fill="#4c4c4c" d="M129.135,6.283c0,0-1.74,0-2.582,0
  c-1.311,0-1.904,0.276-2.025,0.809c-0.365,1.74,4.346,3.125,3.902,5.811c-0.244,1.496-1.555,2.577-4.572,2.577h-3.691l0.363-1.74
  h2.977c0.912,0,2.043,0.046,2.256-0.87c0.352-1.573-4.285-3.124-3.936-5.745c0.211-1.574,1.617-2.581,4.453-2.581
  c0,0,3.25,0,3.234,0L129.135,6.283L129.135,6.283z"/>
<polygon fill-rule="evenodd" clip-rule="evenodd" fill="#4c4c4c" points="139.582,6.283 136.178,6.283 134.229,15.48 131.818,15.48
  133.771,6.283 130.369,6.283 130.754,4.544 139.949,4.544 139.582,6.283 "/>
<polygon fill-rule="evenodd" clip-rule="evenodd" fill="#4c4c4c" points="140.02,15.48 140.965,13.74 144.41,13.74 143.451,6.712
  138.645,15.48 136.236,15.48 142.504,4.544 145.387,4.544 147.094,15.48 140.02,15.48 "/>
<polygon fill-rule="evenodd" clip-rule="evenodd" fill="#4c4c4c" points="156.877,6.283 153.473,6.283 151.525,15.48 149.115,15.48
  151.066,6.283 147.666,6.283 148.045,4.544 157.242,4.544 156.877,6.283 "/>
<polygon fill-rule="evenodd" clip-rule="evenodd" fill="#4c4c4c" points="166.395,6.283 160.893,6.283 160.283,9.136 165.086,9.136
  164.736,10.75 159.93,10.75 159.305,13.74 164.812,13.74 164.443,15.48 156.514,15.48 158.85,4.544 166.766,4.544 166.395,6.283 "/>
<path fill-rule="evenodd" clip-rule="evenodd" fill="#4c4c4c" d="M174.918,6.283c0,0-1.744,0-2.578,0
  c-1.312,0-1.908,0.276-2.027,0.809c-0.367,1.74,4.342,3.125,3.902,5.811c-0.246,1.496-1.557,2.577-4.576,2.577h-3.689l0.363-1.74
  h2.979c0.912,0,2.039,0.046,2.256-0.87c0.35-1.573-4.287-3.124-3.936-5.745c0.217-1.574,1.615-2.581,4.457-2.581c0,0,3.244,0,3.23,0
  L174.918,6.283L174.918,6.283z"/>
<path fill-rule="evenodd" clip-rule="evenodd" fill="#4c4c4c" d="M58.891,29.535c-0.379,0-0.793-0.061-1.14-0.092l-0.122-1.588
  c0.303,0.027,0.701,0.074,1.064,0.074c1.649,0,2.245-1.127,2.381-1.781c0.258-1.191-0.35-1.633-1.235-1.633h-1.968l-1.951,9.197
  h-2.409l2.317-10.936h5.231c2.366,0,2.639,2.061,2.349,3.426C62.966,28.283,61.059,29.535,58.891,29.535L58.891,29.535z"/>
<path fill-rule="evenodd" clip-rule="evenodd" fill="#4c4c4c" d="M68.729,33.91c-3.367,0-5.263-2.562-4.607-5.674
  c0.827-3.893,3.648-5.658,7.032-5.658c3.356,0,5.293,2.412,4.591,5.658C74.892,32.217,72.148,33.91,68.729,33.91L68.729,33.91
  L68.729,33.91z M70.775,24.318c-2.184,0-3.63,1.449-4.193,3.918c-0.477,2.121,0.273,3.936,2.529,3.936
  c2.181,0,3.644-1.465,4.164-3.936C73.749,26.025,73.001,24.318,70.775,24.318L70.775,24.318z"/>
<path fill-rule="evenodd" clip-rule="evenodd" fill="#4c4c4c" d="M84.491,24.516c0,0-1.736,0-2.577,0
  c-1.312,0-1.909,0.271-2.03,0.805c-0.363,1.744,4.351,3.129,3.906,5.814c-0.243,1.49-1.556,2.578-4.575,2.578h-3.689l0.363-1.738
  h2.972c0.917,0,2.047,0.045,2.261-0.871c0.347-1.568-4.286-3.123-3.936-5.746c0.211-1.574,1.614-2.58,4.454-2.58
  c0,0,3.249,0,3.233,0L84.491,24.516L84.491,24.516z"/>
<polygon fill-rule="evenodd" clip-rule="evenodd" fill="#4c4c4c" points="94.939,24.516 91.537,24.516 89.587,33.713 87.18,33.713
  89.132,24.516 85.727,24.516 86.108,22.777 95.309,22.777 94.939,24.516 "/>
<polygon fill-rule="evenodd" clip-rule="evenodd" fill="#4c4c4c" points="95.394,33.713 96.34,31.975 99.787,31.975 98.826,24.943
  94.02,33.713 91.612,33.713 97.875,22.777 100.76,22.777 102.467,33.713 95.394,33.713 "/>
<polygon fill-rule="evenodd" clip-rule="evenodd" fill="#4c4c4c" points="111.123,33.713 103.725,33.713 106.043,22.777
  108.471,22.777 106.518,31.975 111.502,31.975 111.123,33.713 "/>
<path fill-rule="evenodd" clip-rule="evenodd" fill="#4c4c4c" d="M124.162,24.516c0,0-1.738,0-2.58,0
  c-1.311,0-1.906,0.271-2.029,0.805c-0.361,1.744,4.352,3.129,3.906,5.814c-0.244,1.49-1.555,2.578-4.576,2.578h-3.686l0.359-1.738
  h2.977c0.914,0,2.043,0.045,2.258-0.871c0.348-1.568-4.285-3.123-3.934-5.746c0.211-1.574,1.615-2.58,4.451-2.58c0,0,3.25,0,3.234,0
  L124.162,24.516L124.162,24.516z"/>
<polygon fill-rule="evenodd" clip-rule="evenodd" fill="#4c4c4c" points="134.178,24.516 128.67,24.516 128.062,27.367
  132.865,27.367 132.518,28.982 127.713,28.982 127.084,31.975 132.594,31.975 132.227,33.713 124.295,33.713 126.629,22.777
  134.543,22.777 134.178,24.516 "/>
<path fill-rule="evenodd" clip-rule="evenodd" fill="#4c4c4c" d="M141.109,28.996l1.801,4.717h-2.637l-1.984-5.994
  c0.305,0.045,0.686,0.031,0.916,0.031c1.232,0,2.361-0.521,2.625-1.818c0.135-0.684,0.01-1.436-1.328-1.436h-2.166l-1.953,9.217
  h-2.408l2.32-10.936h5.09c2.137,0,2.988,0.961,2.854,2.787C144.086,27.625,142.709,28.771,141.109,28.996L141.109,28.996z"/>
<polygon fill-rule="evenodd" clip-rule="evenodd" fill="#4c4c4c" points="150.01,33.713 147.162,33.713 145.514,22.777
  147.92,22.777 149.051,31.545 153.854,22.777 156.234,22.777 150.01,33.713 "/>
<polygon fill-rule="evenodd" clip-rule="evenodd" fill="#4c4c4c" points="157.781,33.713 155.371,33.713 157.686,22.777
  160.098,22.777 157.781,33.713 "/>
<path fill-rule="evenodd" clip-rule="evenodd" fill="#4c4c4c" d="M169.871,24.668c-0.684-0.199-1.445-0.35-2.564-0.35
  c-2.18,0-4.037,1.449-4.557,3.918c-0.52,2.471,0.713,3.936,2.896,3.936c1.146,0,2.061-0.172,2.93-0.383l-0.596,1.877
  c-0.881,0.137-1.768,0.244-2.701,0.244c-3.354,0-5.84-1.758-5-5.674c0.822-3.918,4.057-5.658,7.41-5.658
  c0.811,0,1.619,0.107,2.396,0.244L169.871,24.668L169.871,24.668z"/>
<polygon fill-rule="evenodd" clip-rule="evenodd" fill="#4c4c4c" points="179.59,24.516 174.08,24.516 173.469,27.367
  178.279,27.367 177.924,28.982 173.123,28.982 172.496,31.975 178,31.975 177.635,33.713 169.705,33.713 172.035,22.777
  179.951,22.777 179.59,24.516 "/>
<polygon fill-rule="evenodd" clip-rule="evenodd" fill="#999999" points="180.645,19.537 180.814,18.728 56.688,18.728
  56.517,19.537 180.645,19.537 "/>
</svg>
